<svg width="172" height="52" xmlns="http://www.w3.org/2000/svg" xmlns:xlink="http://www.w3.org/1999/xlink"><defs><linearGradient x1="50%" y1="0%" x2="50%" y2="100%" id="b"><stop stop-color="#257CB0" offset="0%"/><stop stop-color="#4A93B5" offset="28.63%"/><stop stop-color="#78BCBB" offset="76.7%"/><stop stop-color="#89CFBD" offset="100%"/></linearGradient><linearGradient x1="0%" y1="50%" x2="100.001%" y2="50%" id="e"><stop stop-color="#52C1AD" offset="0%"/><stop stop-color="#DEE89A" offset="100%"/></linearGradient><linearGradient x1="50%" y1="-.001%" x2="50%" y2="100%" id="h"><stop stop-color="#EC413D" offset="0%"/><stop stop-color="#DA4452" offset="16.68%"/><stop stop-color="#B0487A" offset="57.48%"/><stop stop-color="#954A92" offset="86.19%"/><stop stop-color="#8A4A9D" offset="100%"/></linearGradient><linearGradient x1="50.001%" y1="-.001%" x2="50.001%" y2="100.001%" id="k"><stop stop-color="#F58879" offset="0%"/><stop stop-color="#F69079" offset="11.94%"/><stop stop-color="#FCB877" offset="71.28%"/><stop stop-color="#FEC874" offset="100%"/></linearGradient><path d="m22.66 12.104-7.148-4.057L1.722.219C.956-.215.193.048.193.956V32.847c0 .68.546.974 1.21.597l14.109-8.008 7.148-4.057 6.872-3.9c.807-.459.73-1.086.049-1.446-.68-.361-6.92-3.929-6.92-3.929Z" id="a"/><path d="m22.66 12.104-7.148-4.057L1.722.219C.956-.215.193.048.193.956V32.847c0 .68.546.974 1.21.597l14.109-8.008 7.148-4.057 6.872-3.9c.807-.459.73-1.086.049-1.446-.68-.361-6.92-3.929-6.92-3.929Z" id="d"/><path d="m22.66 12.104-7.148-4.057L1.722.219C.956-.215.193.048.193.956V32.847c0 .68.546.974 1.21.597l14.109-8.008 7.148-4.057 6.872-3.9c.807-.459.73-1.086.049-1.446-.68-.361-6.92-3.929-6.92-3.929Z" id="g"/><path d="m22.66 12.104-7.148-4.057L1.722.219C.956-.215.193.048.193.956V32.847c0 .68.546.974 1.21.597l14.109-8.008 7.148-4.057 6.872-3.9c.807-.459.73-1.086.049-1.446-.68-.361-6.92-3.929-6.92-3.929Z" id="j"/></defs><g fill="none" fill-rule="evenodd"><g fill="#000"><path d="M165.238 51H6.965C3.677 51 1 48.34 1 45.084V6.907C1 3.65 3.677 1 6.965 1h158.273c3.287 0 6.059 2.65 6.059 5.907v38.177c0 3.256-2.772 5.916-6.059 5.916Z"/><path d="M170.076 45.085c0 2.645-2.162 4.788-4.837 4.788H6.965c-2.673 0-4.842-2.143-4.842-4.788V6.906c0-2.643 2.17-4.793 4.842-4.793h158.273c2.676 0 4.838 2.15 4.838 4.793v38.179Z"/></g><g transform="translate(16.321 9.303)"><mask id="c" fill="#fff"><use xlink:href="#a"/></mask><path fill="url(#b)" mask="url(#c)" d="M17.904 16.742.194-.523v34.528z"/></g><g transform="translate(16.321 9.303)"><mask id="f" fill="#fff"><use xlink:href="#d"/></mask><path fill="url(#e)" mask="url(#f)" d="m.194-.523 17.71 17.265 4.757-4.638-7.149-4.057L.194-.648z"/></g><g transform="translate(16.321 9.303)"><mask id="i" fill="#fff"><use xlink:href="#g"/></mask><path fill="url(#h)" mask="url(#i)" d="m22.66 21.378-4.756-4.636L.194 34.005v.126l15.318-8.695z"/></g><g transform="translate(16.321 9.303)"><mask id="l" fill="#fff"><use xlink:href="#j"/></mask><path fill="url(#k)" mask="url(#l)" d="m30.83 16.741-8.17-4.637-4.756 4.638 4.757 4.636z"/></g><g fill="#F9F9F9"><path d="M128.013 32.793c-.665 0-1.272-.12-1.822-.361a3.423 3.423 0 0 1-1.384-1.113h-.112c.075.586.112 1.142.112 1.667v4.132h-1.546V22.569h1.258l.213 1.374h.075c.398-.55.86-.946 1.389-1.19.528-.245 1.134-.367 1.817-.367 1.354 0 2.4.455 3.136 1.365.736.91 1.104 2.187 1.104 3.83 0 1.649-.374 2.93-1.122 3.843-.749.913-1.788 1.37-3.118 1.37Zm-.224-9.116c-1.043 0-1.798.285-2.264.852-.466.568-.705 1.473-.718 2.713v.338c0 1.411.24 2.42.718 3.029.479.608 1.246.91 2.302.91.882 0 1.574-.35 2.074-1.052.5-.703.75-1.67.75-2.905 0-1.252-.25-2.213-.75-2.881-.5-.67-1.205-1.004-2.112-1.004Z" fill-rule="nonzero"/><path d="M135.836 32.61h-1.547V18.354h1.547z"/><path d="m144.73 32.61-.308-1.43h-.075c-.51.63-1.017 1.056-1.524 1.279-.506.223-1.138.334-1.896.334-1.012 0-1.806-.256-2.381-.77-.575-.512-.862-1.242-.862-2.189 0-2.027 1.65-3.09 4.949-3.188l1.734-.055v-.623c0-.788-.173-1.37-.518-1.746-.345-.376-.897-.563-1.654-.563-.852 0-1.815.256-2.89.77l-.475-1.164a7.344 7.344 0 0 1 1.655-.632c.6-.153 1.2-.23 1.803-.23 1.218 0 2.12.266 2.707.797.587.532.88 1.384.88 2.557v6.852h-1.145Zm-3.495-1.072c.963 0 1.719-.26 2.27-.778.548-.52.824-1.246.824-2.181v-.907l-1.548.064c-1.23.043-2.116.23-2.66.564-.544.333-.816.85-.816 1.553 0 .55.17.968.509 1.254.338.288.811.431 1.421.431Z" fill-rule="nonzero"/><path d="M146.774 22.569h1.658l2.237 5.726c.49 1.307.795 2.25.914 2.831h.074c.081-.312.25-.844.508-1.6.258-.754 1.102-3.073 2.53-6.957h1.66l-4.39 11.434c-.435 1.13-.943 1.931-1.524 2.406-.581.473-1.294.709-2.138.709-.473 0-.939-.052-1.399-.156v-1.218c.342.073.724.11 1.147.11 1.062 0 1.82-.586 2.274-1.76l.568-1.428-4.12-10.097Z"/></g><g fill="#F9F9F9"><path d="M99.356 23.502c.49.4 1.516 1.239 1.516 2.836 0 1.553-.897 2.29-1.795 2.982-.278.272-.598.567-.598 1.03 0 .46.32.713.556.902l.77.587c.94.778 1.793 1.492 1.793 2.942 0 1.974-1.944 3.969-5.618 3.969-3.098 0-4.593-1.45-4.593-3.004 0-.756.383-1.826 1.645-2.562 1.324-.799 3.12-.902 4.08-.967-.3-.378-.64-.777-.64-1.427 0-.356.106-.567.213-.82-.236.021-.47.043-.685.043-2.263 0-3.545-1.66-3.545-3.297 0-.966.449-2.038 1.366-2.814 1.219-.987 2.671-1.156 3.826-1.156h4.4l-1.368.756h-1.323Zm-1.518 9.325c-.17-.022-.278-.022-.49-.022-.192 0-1.348.043-2.244.338-.47.167-1.837.67-1.837 2.163 0 1.49 1.474 2.563 3.76 2.563 2.05 0 3.141-.968 3.141-2.27 0-1.072-.706-1.637-2.33-2.772Zm.62-3.99c.491-.484.533-1.155.533-1.534 0-1.512-.918-3.864-2.69-3.864-.557 0-1.154.273-1.496.693-.363.441-.47 1.008-.47 1.554 0 1.407.832 3.739 2.67 3.739a2.21 2.21 0 0 0 1.453-.588ZM85.906 32.491c-3.391 0-5.204-2.6-5.204-4.949 0-2.747 2.282-5.095 5.525-5.095 3.134 0 5.096 2.41 5.096 4.949 0 2.473-1.94 5.095-5.417 5.095Zm2.666-1.698c.512-.672.64-1.51.64-2.329 0-1.845-.895-5.368-3.54-5.368-.704 0-1.408.274-1.92.715-.832.733-.982 1.656-.982 2.558 0 2.075 1.046 5.492 3.627 5.492.832 0 1.685-.398 2.175-1.068ZM74.345 32.491c-3.391 0-5.204-2.6-5.204-4.949 0-2.747 2.282-5.095 5.525-5.095 3.134 0 5.097 2.41 5.097 4.949 0 2.473-1.94 5.095-5.418 5.095Zm2.667-1.698c.511-.672.64-1.51.64-2.329 0-1.845-.897-5.368-3.542-5.368-.703 0-1.407.274-1.919.715-.832.733-.981 1.656-.981 2.558 0 2.075 1.045 5.492 3.626 5.492.832 0 1.685-.398 2.176-1.068Z" fill-rule="nonzero"/><path d="m67.511 32.163-3.067.695c-1.244.19-2.359.358-3.537.358-5.92 0-8.17-4.28-8.17-7.632 0-4.09 3.194-7.883 8.663-7.883 1.158 0 2.272.168 3.28.443 1.608.442 2.359.99 2.831 1.307l-1.78 1.665-.75.168.535-.844c-.729-.695-2.06-1.98-4.589-1.98-3.388 0-5.94 2.53-5.94 6.22 0 3.961 2.916 7.693 7.59 7.693 1.374 0 2.08-.274 2.724-.527v-3.394l-3.237.169 1.714-.908h4.547l-.557.527c-.151.127-.172.17-.215.337-.022.19-.042.802-.042 1.013v2.573ZM106.133 31.555c-.708-.063-.856-.189-.856-1.012V18.611c.004-.045.007-.092.012-.136.086-.737.3-.864.966-1.244h-3.068l-1.609.76h1.64V18l-.001-.008v13.015c0 .421-.085.485-.579 1.117h3.796l.794-.463c-.364-.043-.73-.064-1.095-.106Z"/><path d="M114.86 31.75c-.234.125-.469.272-.702.376-.704.314-1.428.398-2.068.398-.68 0-1.745-.043-2.832-.817-1.511-1.048-2.172-2.848-2.172-4.418 0-3.244 2.684-4.835 4.877-4.835.767 0 1.556.188 2.195.586 1.064.69 1.34 1.59 1.489 2.072l-5.004 1.99-1.64.125c.532 2.659 2.363 4.207 4.387 4.207 1.086 0 1.874-.376 2.598-.731l-1.129 1.046Zm-2.002-6.24c.404-.146.617-.272.617-.565 0-.837-.958-1.8-2.109-1.8-.852 0-2.448.649-2.448 2.91 0 .355.042.732.064 1.11l3.876-1.655Z" fill-rule="nonzero"/><path d="M116.915 22.597v1.381h-.17v-1.381h-.466v-.143h1.1v.143zM118.83 23.978v-1.394h-.007l-.433 1.394h-.134l-.436-1.394h-.006v1.394h-.155v-1.524h.266l.395 1.232h.005l.39-1.232h.269v1.524h-.154z"/></g><g fill="#F9F9FA"><path d="M56.995 13.596H55.93c0-.144-.1-.552-.303-1.224h-1.538c-.209.66-.313 1.069-.313 1.224h-1.002c0-.085.259-.783.777-2.095.518-1.312.777-2.034.777-2.167h1.26c0 .124.234.836.704 2.136.47 1.3.704 2.008.704 2.126Zm-1.538-1.85c-.38-1.125-.57-1.734-.57-1.826h-.053c0 .085-.197.694-.59 1.827h1.213Z" fill-rule="nonzero"/><path d="M61.289 13.596h-.822c0-.09-.306-.562-.916-1.417-.64-.902-1.003-1.518-1.092-1.85h-.053c.055.478.083.91.083 1.297 0 .539.015 1.196.046 1.97h-.819c.033-.676.05-1.42.05-2.229 0-.796-.017-1.474-.05-2.033h.989c0 .116.274.578.822 1.385.584.858.92 1.44 1.006 1.745h.05c-.053-.487-.08-.923-.08-1.31 0-.59-.016-1.198-.047-1.82h.833a36.356 36.356 0 0 0-.046 2.033c0 .82.015 1.563.046 2.229Z"/><path d="M66.115 11.317c0 .62-.202 1.162-.606 1.624-.404.463-.97.694-1.698.694-.329 0-.781-.013-1.359-.04.03-.658.044-1.402.044-2.228 0-.795-.015-1.472-.044-2.033h.583c.096 0 .238-.004.426-.01.189-.007.312-.01.37-.01.801 0 1.382.197 1.743.59.361.392.541.864.541 1.413Zm-.909.141c0-.419-.124-.772-.373-1.059-.248-.287-.628-.43-1.139-.43-.095 0-.226.01-.393.03.022.436.034.892.034 1.368 0 .521.01 1.038.033 1.551.144.029.288.043.432.043.478 0 .831-.146 1.06-.437.23-.292.346-.647.346-1.066ZM70.566 13.596h-.986c-.258-.773-.455-1.25-.593-1.43-.138-.182-.36-.272-.666-.272-.129 0-.252.001-.37.003 0 .561.01 1.127.03 1.699h-.925c.029-.66.044-1.402.044-2.23 0-.793-.015-1.471-.044-2.032h.576c.067 0 .206-.003.418-.01.212-.006.408-.01.588-.01 1.019 0 1.528.343 1.528 1.028 0 .544-.29.922-.872 1.136v.05c.224.06.42.233.59.515.168.282.395.8.681 1.553Zm-1.25-3.012c0-.434-.283-.651-.852-.651-.208 0-.393.015-.552.045.024.339.036.78.036 1.323.122.005.226.006.31.006.706 0 1.059-.24 1.059-.723ZM75.339 11.386c0 .67-.209 1.226-.626 1.667-.418.44-.934.66-1.549.66-.586 0-1.076-.201-1.471-.606-.396-.405-.593-.92-.593-1.544 0-.67.209-1.225.626-1.666.417-.44.933-.661 1.548-.661.587 0 1.077.202 1.472.605.395.404.593.919.593 1.545Zm-.92.095c0-.456-.118-.826-.355-1.11-.238-.283-.531-.425-.88-.425-.324 0-.599.143-.825.429-.227.285-.34.647-.34 1.083 0 .454.12.823.358 1.108.239.285.531.428.878.428.324 0 .6-.144.825-.431.227-.287.34-.648.34-1.082Z" fill-rule="nonzero"/><path d="M77.221 13.596h-.942c.029-.677.043-1.42.043-2.23 0-.796-.014-1.473-.043-2.032h.942c-.028.55-.043 1.227-.043 2.033 0 .823.015 1.566.043 2.229Z"/><path d="M82.048 11.317c0 .62-.202 1.162-.606 1.624-.404.463-.97.694-1.698.694-.329 0-.782-.013-1.359-.04.029-.658.043-1.402.043-2.228 0-.795-.014-1.472-.043-2.033h.583c.095 0 .237-.004.426-.01.189-.007.312-.01.37-.01.8 0 1.382.197 1.743.59.36.392.541.864.541 1.413Zm-.91.141c0-.419-.123-.772-.372-1.059-.249-.287-.628-.43-1.139-.43-.095 0-.226.01-.393.03.022.436.033.892.033 1.368 0 .521.011 1.038.033 1.551.145.029.289.043.433.043.478 0 .83-.146 1.06-.437.23-.292.346-.647.346-1.066ZM88.45 13.596h-1.065c0-.144-.101-.552-.303-1.224h-1.539c-.208.66-.313 1.069-.313 1.224h-1.002c0-.085.26-.783.778-2.095.518-1.312.777-2.034.777-2.167h1.259c0 .124.235.836.704 2.136.47 1.3.705 2.008.705 2.126Zm-1.537-1.85c-.38-1.125-.57-1.734-.57-1.826h-.053c0 .085-.197.694-.59 1.827h1.213ZM92.335 10.45c0 .522-.197.907-.591 1.156-.394.248-.877.373-1.45.373-.105 0-.179-.002-.223-.006 0 .41.012.951.036 1.623h-.936c.03-.63.044-1.373.044-2.229 0-.785-.015-1.463-.044-2.033h.58c.082 0 .24-.003.473-.01.233-.006.434-.01.606-.01.421 0 .778.095 1.068.282.291.188.437.472.437.854Zm-.86.18c0-.467-.314-.7-.945-.7-.158 0-.324.016-.5.048.025.413.037.88.037 1.402.056.004.12.006.193.006.811 0 1.216-.252 1.216-.756ZM96.329 10.45c0 .522-.198.907-.591 1.156-.394.248-.878.373-1.45.373-.105 0-.18-.002-.224-.006 0 .41.012.951.037 1.623h-.936c.029-.63.043-1.373.043-2.229 0-.785-.014-1.463-.043-2.033h.58c.081 0 .239-.003.472-.01.233-.006.435-.01.606-.01.422 0 .778.095 1.069.282.29.188.437.472.437.854Zm-.86.18c0-.467-.315-.7-.945-.7-.158 0-.324.016-.5.048.025.413.037.88.037 1.402.056.004.12.006.193.006.81 0 1.216-.252 1.216-.756ZM102.858 11.386c0 .67-.208 1.226-.626 1.667a2.047 2.047 0 0 1-1.548.66c-.586 0-1.077-.201-1.472-.606-.395-.405-.593-.92-.593-1.544 0-.67.209-1.225.626-1.666a2.047 2.047 0 0 1 1.549-.661c.586 0 1.077.202 1.472.605.395.404.592.919.592 1.545Zm-.919.095c0-.456-.118-.826-.356-1.11-.237-.283-.53-.425-.879-.425-.324 0-.6.143-.826.429-.226.285-.34.647-.34 1.083 0 .454.12.823.358 1.108.24.285.531.428.878.428.324 0 .6-.144.825-.431.227-.287.34-.648.34-1.082Z" fill-rule="nonzero"/><path d="M107.372 13.596h-.823c0-.09-.305-.562-.915-1.417-.64-.902-1.004-1.518-1.092-1.85h-.054c.056.478.084.91.084 1.297 0 .539.015 1.196.046 1.97h-.82c.034-.676.05-1.42.05-2.229 0-.796-.016-1.474-.05-2.033h.99c0 .116.274.578.822 1.385.584.858.92 1.44 1.006 1.745h.05c-.054-.487-.08-.923-.08-1.31 0-.59-.016-1.198-.047-1.82h.833a36.356 36.356 0 0 0-.047 2.033c0 .82.016 1.563.047 2.229Z"/></g></g></svg>