<svg xmlns="http://www.w3.org/2000/svg" width="50" height="50"><g fill="none" fill-rule="evenodd"><g stroke="#000" stroke-linecap="round" stroke-linejoin="round" stroke-width="1.4"><path d="M22.975 42.6h4.95M24.625 45.9h1.65M38.65 23.625c0-7.29-5.91-13.2-13.2-13.2-7.29 0-13.2 5.91-13.2 13.2 0 6.148 4.21 11.3 9.9 12.768V39.3h6.6v-2.907c5.69-1.468 9.9-6.62 9.9-12.768ZM4 22.8h3.3M8.95 7.95l4.125 4.125M25.45 3v3.3M41.95 7.95l-4.125 4.125M46.9 22.8h-3.3"/></g><path fill="#EDC476" d="M25.31 16.479a8.441 8.441 0 0 0 2.269 5.06 8.636 8.636 0 0 0 5.09 2.31 7.89 7.89 0 0 0-5.09 1.92 9.531 9.531 0 0 0-2.269 5.359 8.92 8.92 0 0 0-2.384-5.358 7.857 7.857 0 0 0-5.268-1.921 8.79 8.79 0 0 0 5.268-2.192 8.77 8.77 0 0 0 2.384-5.178Z"/></g></svg>