<svg xmlns="http://www.w3.org/2000/svg" width="50" height="50"><g fill="none" fill-rule="evenodd"><path fill="#000" fill-rule="nonzero" stroke="#FFF" d="M41.64 28.01c.01-.248.038-.49.038-.74 0-7.183-4.607-13.275-11.02-15.526-.226-2.827-2.562-5.058-5.447-5.058-2.884 0-5.223 2.231-5.445 5.058-6.415 2.25-11.022 8.343-11.022 15.525 0 .252.027.493.037.741C7.128 28.956 6 30.716 6 32.758a5.49 5.49 0 0 0 5.489 5.49c.455 0 .89-.072 1.313-.178 3.019 3.465 7.453 5.666 12.41 5.666 4.954 0 9.39-2.2 12.408-5.666.424.106.858.177 1.313.177a5.49 5.49 0 0 0 5.49-5.489c0-2.042-1.129-3.802-2.782-4.748ZM25.212 9.432a2.745 2.745 0 0 1 2.745 2.743 2.745 2.745 0 0 1-5.49 0 2.744 2.744 0 0 1 2.745-2.743ZM11.49 35.502a2.745 2.745 0 0 1 0-5.488 2.745 2.745 0 0 1 0 5.489Zm13.722 5.49c-3.913 0-7.435-1.647-9.935-4.275a5.463 5.463 0 0 0 1.702-3.959 5.49 5.49 0 0 0-5.49-5.489c0-5.826 3.637-10.79 8.761-12.782.874 1.872 2.76 3.177 4.962 3.177 2.203 0 4.088-1.305 4.962-3.177 5.124 1.991 8.76 6.956 8.76 12.782a5.49 5.49 0 0 0-5.489 5.49c0 1.56.658 2.958 1.702 3.958-2.5 2.628-6.021 4.275-9.935 4.275Zm13.722-5.49a2.745 2.745 0 0 1 0-5.488 2.745 2.745 0 0 1 0 5.489Z"/><path fill="#EDC476" d="M25.31 20.479a8.441 8.441 0 0 0 2.269 5.06 8.636 8.636 0 0 0 5.09 2.31 7.89 7.89 0 0 0-5.09 1.92 9.531 9.531 0 0 0-2.269 5.359 8.92 8.92 0 0 0-2.384-5.358 7.857 7.857 0 0 0-5.268-1.921 8.79 8.79 0 0 0 5.268-2.192 8.77 8.77 0 0 0 2.384-5.178Z"/></g></svg>