<svg xmlns="http://www.w3.org/2000/svg" width="50" height="50"><g fill="none" fill-rule="evenodd"><path fill="#000" fill-rule="nonzero" d="M39.26 44.569H11.797a1.999 1.999 0 0 1-1.992-1.993V24.058l-.057.028-1.452-4.134A1.978 1.978 0 0 1 9.52 17.42l25.898-9.13a1.98 1.98 0 0 1 1.51.087c.477.23.844.639 1.023 1.138l1.452 4.134-28.431 10.01h30.28V42.58a1.98 1.98 0 0 1-1.992 1.989ZM11.142 30.174v12.402a.644.644 0 0 0 .655.656H39.26a.644.644 0 0 0 .655-.656V30.174H11.142Zm23.707-1.308h5.066v-3.899h-2.05l-3.016 3.899Zm-6.603 0h5.207l-.17-.142 2.903-3.757h-4.929l-3.011 3.899Zm-6.63 0h5.207l-.17-.142 2.903-3.757h-4.929l-3.011 3.899Zm-7.286 0h5.862l-.17-.142 2.904-3.757h-5.58l-3.016 3.899Zm-3.18 0h1.786l-.17-.142 2.901-3.757h-4.553v3.899h.036Zm-1.59-9.364 1.02 2.875 4.183-1.48-3.877-2.504.057-.115-1 .344a.735.735 0 0 0-.394.88h.011Zm2.846-1.707 3.945 2.561 4.667-1.65-3.87-2.504.057-.115-4.799 1.708Zm6.233-2.191 3.945 2.561 4.666-1.65-3.87-2.504.058-.115-4.799 1.708Zm6.233-2.226 3.943 2.57 5.296-1.88-3.873-2.504.057-.115-5.423 1.929Zm6.854-2.412 3.956 2.561 2.021-.71-1.032-2.877a.555.555 0 0 0-.342-.37.644.644 0 0 0-.512-.029l-4.09 1.425Z"/><path fill="#EDC476" d="M25.31 29.479a8.441 8.441 0 0 0 2.269 5.06 8.636 8.636 0 0 0 5.09 2.31 7.89 7.89 0 0 0-5.09 1.92 9.531 9.531 0 0 0-2.269 5.359 8.92 8.92 0 0 0-2.384-5.358 7.857 7.857 0 0 0-5.268-1.921 8.79 8.79 0 0 0 5.268-2.192 8.77 8.77 0 0 0 2.384-5.178Z"/></g></svg>