<svg xmlns="http://www.w3.org/2000/svg" width="172" height="52"><g fill="none" fill-rule="evenodd"><path fill="#000" d="M165.238 51H6.965C3.677 51 1 48.34 1 45.084V6.907C1 3.65 3.677 1 6.965 1h158.273c3.287 0 6.059 2.65 6.059 5.907v38.177c0 3.256-2.772 5.916-6.059 5.916Z"/><path fill="#000" d="M170.076 45.085c0 2.645-2.162 4.788-4.837 4.788H6.965c-2.673 0-4.842-2.143-4.842-4.788V6.906c0-2.643 2.17-4.793 4.842-4.793h158.273c2.676 0 4.838 2.15 4.838 4.793v38.179Z"/><g fill="#FFF"><path d="M39.005 25.73c-.036-4.029 3.33-5.989 3.483-6.08-1.906-2.754-4.86-3.13-5.898-3.16-2.482-.259-4.889 1.471-6.153 1.471-1.289 0-3.235-1.446-5.333-1.404-2.7.042-5.225 1.59-6.61 3.996-2.859 4.903-.727 12.11 2.012 16.073 1.37 1.941 2.97 4.109 5.066 4.033 2.05-.084 2.816-1.295 5.29-1.295 2.45 0 3.17 1.295 5.306 1.246 2.2-.035 3.585-1.95 4.907-3.909 1.583-2.225 2.22-4.416 2.244-4.529-.051-.017-4.272-1.613-4.314-6.442ZM34.969 13.883c1.102-1.367 1.856-3.225 1.647-5.112-1.596.07-3.591 1.094-4.74 2.43-1.017 1.178-1.926 3.108-1.69 4.923 1.792.132 3.632-.896 4.783-2.241Z"/></g><g fill="#FFF"><path fill-rule="nonzero" d="M68.67 40.38h-2.864l-1.57-4.886h-5.454l-1.494 4.886h-2.79l5.405-16.635h3.337l5.43 16.635Zm-4.906-6.936-1.42-4.344c-.15-.444-.43-1.489-.846-3.134h-.05c-.165.708-.432 1.753-.797 3.134l-1.394 4.344h4.507ZM82.568 34.235c0 2.04-.556 3.653-1.668 4.836-.997 1.054-2.235 1.58-3.712 1.58-1.594 0-2.74-.567-3.437-1.702h-.05v6.319h-2.69V32.334c0-1.283-.034-2.599-.1-3.949h2.366l.15 1.901h.05c.897-1.432 2.258-2.147 4.085-2.147 1.428 0 2.62.558 3.573 1.677.957 1.12 1.433 2.593 1.433 4.419Zm-2.74.097c0-1.167-.264-2.13-.797-2.887-.581-.79-1.362-1.185-2.341-1.185-.664 0-1.266.22-1.805.654a3.028 3.028 0 0 0-1.058 1.716c-.084.33-.125.6-.125.813v2c0 .872.27 1.608.81 2.21.54.6 1.24.9 2.104.9 1.013 0 1.801-.387 2.365-1.16.565-.773.848-1.793.848-3.06ZM96.491 34.235c0 2.04-.556 3.653-1.67 4.836-.995 1.054-2.233 1.58-3.71 1.58-1.594 0-2.74-.567-3.436-1.702h-.05v6.319h-2.69V32.334c0-1.283-.034-2.599-.1-3.949H87.2l.15 1.901h.051c.896-1.432 2.257-2.147 4.085-2.147 1.426 0 2.618.558 3.575 1.677.952 1.12 1.43 2.593 1.43 4.419Zm-2.74.097c0-1.167-.266-2.13-.798-2.887-.582-.79-1.36-1.185-2.34-1.185-.665 0-1.267.22-1.807.654-.54.437-.892 1.008-1.057 1.716-.082.33-.125.6-.125.813v2c0 .872.27 1.608.808 2.21.54.6 1.241.9 2.106.9 1.013 0 1.802-.387 2.366-1.16.565-.773.847-1.793.847-3.06Z"/><path d="M112.058 35.715c0 1.415-.496 2.566-1.492 3.455-1.093.971-2.616 1.456-4.572 1.456-1.807 0-3.255-.345-4.351-1.036l.623-2.221a7.423 7.423 0 0 0 3.888 1.062c1.013 0 1.801-.227 2.368-.68.564-.452.845-1.06.845-1.817 0-.675-.232-1.244-.698-1.705-.463-.462-1.236-.89-2.316-1.286-2.939-1.087-4.407-2.678-4.407-4.77 0-1.368.514-2.49 1.545-3.362 1.027-.873 2.397-1.31 4.11-1.31 1.527 0 2.796.264 3.81.79l-.673 2.173c-.946-.51-2.016-.765-3.213-.765-.946 0-1.685.231-2.215.691-.448.411-.672.913-.672 1.506 0 .658.256 1.201.77 1.629.448.395 1.262.823 2.443 1.284 1.444.576 2.505 1.25 3.187 2.022.68.77 1.02 1.734 1.02 2.884ZM120.95 30.385h-2.965v5.824c0 1.481.522 2.221 1.57 2.221.48 0 .879-.041 1.194-.124l.074 2.024c-.53.196-1.227.295-2.091.295-1.062 0-1.892-.321-2.491-.962-.597-.643-.897-1.72-.897-3.234v-6.047h-1.766v-2h1.766v-2.196l2.641-.79v2.986h2.965v2.003Z"/><path fill-rule="nonzero" d="M134.325 34.284c0 1.843-.533 3.357-1.595 4.541-1.114 1.219-2.592 1.826-4.435 1.826-1.776 0-3.19-.584-4.245-1.751-1.054-1.167-1.582-2.641-1.582-4.417 0-1.86.543-3.382 1.631-4.565 1.087-1.185 2.552-1.778 4.395-1.778 1.776 0 3.206.584 4.284 1.752 1.032 1.134 1.547 2.598 1.547 4.392Zm-2.79.086c0-1.106-.239-2.055-.722-2.846-.564-.958-1.37-1.435-2.415-1.435-1.08 0-1.902.479-2.466 1.435-.483.792-.721 1.756-.721 2.896 0 1.106.238 2.055.721 2.845.582.957 1.394 1.435 2.442 1.435 1.027 0 1.833-.488 2.415-1.46.496-.806.745-1.765.745-2.87Z"/><path d="M143.067 30.729a4.712 4.712 0 0 0-.848-.074c-.946 0-1.678.354-2.192 1.063-.448.625-.673 1.415-.673 2.368v6.294h-2.688l.025-8.218c0-1.382-.034-2.64-.1-3.776h2.342l.098 2.295h.075c.284-.789.731-1.424 1.344-1.9.6-.428 1.247-.642 1.944-.642.249 0 .473.017.673.049v2.54Z"/><path fill-rule="nonzero" d="M155.095 33.815c0 .478-.032.88-.099 1.209h-8.068c.032 1.185.421 2.091 1.17 2.716.68.559 1.56.839 2.64.839 1.194 0 2.284-.189 3.264-.568l.422 1.85c-1.146.495-2.498.742-4.059.742-1.877 0-3.35-.548-4.422-1.642-1.07-1.093-1.606-2.562-1.606-4.405 0-1.808.498-3.315 1.496-4.516 1.045-1.282 2.456-1.924 4.232-1.924 1.745 0 3.066.642 3.963 1.924.71 1.019 1.067 2.279 1.067 3.775Zm-2.565-.691c.018-.79-.158-1.473-.522-2.049-.466-.741-1.18-1.111-2.143-1.111-.88 0-1.595.361-2.141 1.086-.448.576-.714 1.268-.796 2.073h5.602Z"/></g><g fill="#FFF"><path fill-rule="nonzero" d="M62.875 13.511c0 1.472-.446 2.579-1.335 3.323-.824.686-1.994 1.03-3.51 1.03-.753 0-1.396-.033-1.935-.098V9.728c.703-.113 1.46-.17 2.277-.17 1.445 0 2.533.31 3.268.933.822.704 1.235 1.71 1.235 3.02Zm-1.394.037c0-.954-.255-1.685-.765-2.196-.51-.508-1.254-.763-2.234-.763-.416 0-.77.027-1.065.085v6.111c.163.025.46.036.894.036 1.011 0 1.792-.279 2.342-.836.55-.557.828-1.37.828-2.438ZM70.265 14.796c0 .907-.26 1.649-.783 2.232-.547.598-1.273.897-2.178.897-.873 0-1.568-.286-2.087-.861-.517-.574-.776-1.298-.776-2.17 0-.913.266-1.662.801-2.243s1.254-.872 2.16-.872c.873 0 1.574.286 2.105.86.505.557.758 1.277.758 2.157Zm-1.37.043c0-.544-.12-1.01-.355-1.399-.278-.47-.673-.705-1.186-.705-.531 0-.935.235-1.212.705-.237.389-.355.863-.355 1.423 0 .543.119 1.01.355 1.398.286.47.685.705 1.2.705.504 0 .9-.239 1.185-.717.245-.396.367-.866.367-1.41Z"/><path d="m80.175 11.899-1.86 5.892h-1.211l-.771-2.559a19.007 19.007 0 0 1-.478-1.903h-.024a13.833 13.833 0 0 1-.478 1.903l-.819 2.56H73.31l-1.75-5.893h1.36l.672 2.801a30.6 30.6 0 0 1 .403 1.891h.024c.099-.492.261-1.12.491-1.879l.844-2.812h1.077l.809 2.752c.195.672.354 1.318.477 1.94h.036c.09-.606.225-1.252.404-1.94l.721-2.752h1.298v-.001ZM87.029 17.791h-1.322v-3.375c0-1.04-.399-1.56-1.198-1.56-.393 0-.71.143-.955.429a1.513 1.513 0 0 0-.367 1.01v3.495h-1.322v-4.207a32.7 32.7 0 0 0-.048-1.687h1.161l.062.921h.037a1.9 1.9 0 0 1 .685-.71 2.25 2.25 0 0 1 1.198-.332c.555 0 1.017.178 1.384.534.457.436.685 1.087.685 1.952v3.53ZM90.675 17.791h-1.321V9.195h1.32z"/><path fill-rule="nonzero" d="M98.458 14.796c0 .907-.261 1.649-.784 2.232-.547.598-1.274.897-2.178.897-.874 0-1.57-.286-2.087-.861-.517-.574-.775-1.298-.775-2.17 0-.913.266-1.662.8-2.243.535-.581 1.255-.872 2.159-.872.874 0 1.574.286 2.107.86.504.557.758 1.277.758 2.157Zm-1.373.043c0-.544-.118-1.01-.354-1.399-.276-.47-.673-.705-1.185-.705-.532 0-.936.235-1.212.705-.237.389-.354.863-.354 1.423 0 .543.118 1.01.354 1.398.286.47.685.705 1.2.705.504 0 .9-.239 1.184-.717.246-.396.367-.866.367-1.41ZM104.856 17.791h-1.187l-.099-.678h-.036c-.406.54-.985.812-1.737.812-.562 0-1.016-.179-1.358-.534-.31-.322-.465-.723-.465-1.2 0-.72.303-1.268.912-1.648.608-.38 1.463-.567 2.565-.558v-.11c0-.776-.412-1.164-1.235-1.164-.587 0-1.104.146-1.55.437l-.27-.86c.553-.34 1.236-.51 2.04-.51 1.555 0 2.334.813 2.334 2.438v2.17c0 .589.03 1.058.086 1.405Zm-1.373-2.025v-.909c-1.458-.024-2.187.372-2.187 1.188 0 .307.083.537.254.691a.93.93 0 0 0 .645.23c.29 0 .562-.091.809-.272a1.115 1.115 0 0 0 .48-.928ZM112.368 17.791h-1.173l-.062-.946h-.037c-.374.72-1.013 1.08-1.91 1.08-.716 0-1.313-.279-1.786-.836-.473-.558-.709-1.281-.709-2.17 0-.954.256-1.727.771-2.317.498-.55 1.109-.825 1.835-.825.799 0 1.358.267 1.676.8h.025V9.196h1.323v7.009c0 .573.015 1.102.047 1.587Zm-1.37-2.485v-.982c0-.17-.013-.308-.037-.413a1.49 1.49 0 0 0-.478-.793 1.306 1.306 0 0 0-.884-.322c-.493 0-.88.194-1.163.583-.281.389-.424.885-.424 1.491 0 .583.135 1.055.406 1.419.287.387.673.581 1.156.581.434 0 .78-.161 1.044-.485.255-.299.38-.659.38-1.079ZM123.674 14.796c0 .907-.26 1.649-.783 2.232-.548.598-1.272.897-2.179.897-.871 0-1.566-.286-2.086-.861-.517-.574-.776-1.298-.776-2.17 0-.913.266-1.662.801-2.243s1.254-.872 2.161-.872c.872 0 1.574.286 2.104.86.505.557.758 1.277.758 2.157Zm-1.37.043c0-.544-.118-1.01-.354-1.399-.279-.47-.672-.705-1.187-.705-.53 0-.934.235-1.212.705-.238.389-.355.863-.355 1.423 0 .543.119 1.01.355 1.398.286.47.685.705 1.2.705.504 0 .901-.239 1.186-.717.244-.396.367-.866.367-1.41Z"/><path d="M130.783 17.791h-1.321v-3.375c0-1.04-.399-1.56-1.2-1.56-.392 0-.709.143-.953.429a1.507 1.507 0 0 0-.368 1.01v3.495h-1.323v-4.207c0-.518-.015-1.08-.046-1.687h1.16l.062.921h.036a1.92 1.92 0 0 1 .685-.71c.36-.22.76-.332 1.2-.332.554 0 1.016.178 1.383.534.458.436.685 1.087.685 1.952v3.53ZM139.68 12.88h-1.456v2.862c0 .728.259 1.092.77 1.092.238 0 .435-.02.59-.061l.034.993c-.261.098-.604.147-1.027.147-.522 0-.928-.158-1.222-.473-.295-.315-.442-.845-.442-1.589V12.88h-.869v-.981h.87v-1.08l1.295-.388v1.467h1.455v.982h.002ZM146.678 17.791h-1.323v-3.35c0-1.056-.399-1.585-1.197-1.585-.613 0-1.032.306-1.262.919-.039.129-.061.286-.061.471v3.544h-1.321V9.195h1.32v3.551h.026c.416-.646 1.013-.969 1.786-.969.548 0 1 .178 1.36.534.448.444.672 1.104.672 1.976v3.504Z"/><path fill-rule="nonzero" d="M153.898 14.566c0 .235-.018.433-.05.594h-3.964c.017.582.206 1.026.574 1.334.335.275.768.412 1.298.412.586 0 1.121-.092 1.603-.279l.207.91c-.564.243-1.228.364-1.996.364-.92 0-1.646-.268-2.17-.806-.528-.538-.79-1.259-.79-2.164 0-.888.244-1.628.735-2.218.512-.63 1.205-.945 2.079-.945.855 0 1.505.314 1.944.944.354.5.53 1.12.53 1.854Zm-1.262-.339a1.751 1.751 0 0 0-.256-1.006c-.23-.364-.579-.546-1.052-.546-.431 0-.783.177-1.052.534-.22.284-.35.622-.392 1.018h2.752Z"/></g></g></svg>