<svg xmlns="http://www.w3.org/2000/svg" width="50" height="50"><g fill="none" fill-rule="evenodd"><g fill="#FFF" fill-rule="nonzero" stroke="#000" stroke-width="1.333"><path d="M15.403 40.659a2.672 2.672 0 0 1-2.148 1.074c-1.256 0-2.337-.872-2.64-2.12l-2.161-7.98C6.495 31.287 5 29.536 5 27.431v-5.292c0-2.357 1.867-4.267 4.156-4.267h1.312c1.32 0 2.731-.094 4.303-.296v14.18c-.238-.015-.456-.029-.666-.036l1.79 6.517c.21.865.028 1.744-.492 2.422ZM43.667 24.498c0 2.476-1.826 4.615-4.392 5.494v-10.98c2.566.872 4.392 3.01 4.392 5.486ZM36.654 8.1a.701.701 0 0 0-.777.114l-.015.007a37.917 37.917 0 0 1-18.548 8.511v15.194c6.036.627 11.677 3.036 16.358 7l2.212 1.873c.132.113.3.174.462.174a.752.752 0 0 0 .733-.755V8.788a.757.757 0 0 0-.425-.687Z"/></g><path fill="#EDC476" d="M26.31 17.479a8.441 8.441 0 0 0 2.269 5.06 8.636 8.636 0 0 0 5.09 2.31 7.89 7.89 0 0 0-5.09 1.92 9.531 9.531 0 0 0-2.269 5.359 8.92 8.92 0 0 0-2.384-5.358 7.857 7.857 0 0 0-5.268-1.921 8.79 8.79 0 0 0 5.268-2.192 8.77 8.77 0 0 0 2.384-5.178Z"/></g></svg>