<svg xmlns="http://www.w3.org/2000/svg" width="30" height="30"><g fill="none" fill-rule="evenodd" transform="translate(1 1)"><rect width="28" height="28" fill="#BF9648" fill-rule="nonzero" rx="4.301"/><path fill="#FFF" d="M13.108 4.011c.062.004.11.055.11.118v19.284a.119.119 0 0 1-.034.083.114.114 0 0 1-.081.034H8.138a.114.114 0 0 1-.081-.034.119.119 0 0 1-.034-.083V4.129c0-.065.051-.118.115-.118h4.97Zm-1.444 15.157H9.583a.466.466 0 0 0-.462.448v2.149c0 .252.193.46.44.471h2.105c.247 0 .45-.197.462-.448v-2.149a.476.476 0 0 0-.136-.334.457.457 0 0 0-.328-.137Zm6.36-7.2a4.308 4.308 0 0 0 1.099 2.54 4.121 4.121 0 0 0 2.467 1.16 3.748 3.748 0 0 0-2.467.964 4.873 4.873 0 0 0-1.1 2.689 4.553 4.553 0 0 0-1.155-2.69 3.73 3.73 0 0 0-2.552-.963 4.185 4.185 0 0 0 2.552-1.1 4.473 4.473 0 0 0 1.156-2.6Zm-6.36 2.54H9.583a.466.466 0 0 0-.462.449v2.149c0 .252.193.46.44.471h2.105c.247 0 .45-.197.462-.448v-2.15a.476.476 0 0 0-.136-.333.457.457 0 0 0-.328-.137Zm0-4.658H9.583a.466.466 0 0 0-.462.448v2.149c0 .252.193.46.44.471h2.105a.466.466 0 0 0 .46-.454v-2.149a.467.467 0 0 0-.462-.465ZM21.59 4.01v7.957a15.982 15.982 0 0 0-2.441-5.676 5.52 5.52 0 0 0-3.669-2.28h6.11Zm-9.927 1.18H9.583a.466.466 0 0 0-.462.448v2.149c0 .252.193.46.44.471h2.105c.247 0 .45-.197.462-.448V5.66a.476.476 0 0 0-.136-.333.457.457 0 0 0-.328-.137Z"/></g></svg>