<svg xmlns="http://www.w3.org/2000/svg" width="30" height="30"><g fill="none" fill-rule="evenodd" transform="translate(1 1)"><rect width="28" height="28" fill="#000" fill-rule="nonzero" rx="4.301"/><path fill="#DEBC8B" d="M12.905 3.95c.06.002.108.053.108.115V23.05c0 .031-.012.06-.033.082a.112.112 0 0 1-.08.034H8.012a.112.112 0 0 1-.08-.034.117.117 0 0 1-.033-.082V4.065c0-.064.05-.116.113-.116h4.893ZM11.483 18.87H9.435a.459.459 0 0 0-.455.442v2.115c0 .248.19.452.432.464h2.074a.459.459 0 0 0 .455-.441v-2.116a.469.469 0 0 0-.135-.329.45.45 0 0 0-.323-.135Zm6.262-7.088a4.242 4.242 0 0 0 1.082 2.501 4.057 4.057 0 0 0 2.429 1.141 3.69 3.69 0 0 0-2.429.95 4.797 4.797 0 0 0-1.082 2.647 4.483 4.483 0 0 0-1.138-2.648 3.672 3.672 0 0 0-2.513-.949 4.12 4.12 0 0 0 2.513-1.083 4.404 4.404 0 0 0 1.138-2.559Zm-6.262 2.501H9.435a.459.459 0 0 0-.455.442v2.115c0 .248.19.452.432.464h2.074a.459.459 0 0 0 .455-.441v-2.116a.469.469 0 0 0-.135-.329.45.45 0 0 0-.323-.135Zm0-4.587H9.435a.459.459 0 0 0-.455.442v2.115c0 .248.19.452.432.464h2.074a.46.46 0 0 0 .452-.447v-2.115a.46.46 0 0 0-.455-.459Zm9.774-5.748v7.834a15.735 15.735 0 0 0-2.404-5.588 5.435 5.435 0 0 0-3.611-2.246h6.015ZM11.483 5.11H9.435a.459.459 0 0 0-.455.442v2.115c0 .248.19.452.432.465h2.074a.459.459 0 0 0 .455-.442V5.574a.469.469 0 0 0-.135-.329.45.45 0 0 0-.323-.135Z"/></g></svg>