<svg xmlns="http://www.w3.org/2000/svg" xmlns:xlink="http://www.w3.org/1999/xlink" xml:space="preserve" style="enable-background:new 0 0 25 25" viewBox="0 0 25 25"><path d="m14.4 11 7.3-8.5H20l-6.3 7.4-5.2-7.4H2.7l7.6 11.1-7.6 8.9h1.7l6.7-7.8 5.3 7.8h5.8L14.4 11zM12 13.7l-.8-1.1-6.1-8.8h2.7l5 7.1.8 1.1 6.5 9.2h-2.7L12 13.7z" style="fill:#f3c060"/><image xlink:href="../AppData/Local/Temp/Rar$DRa23260.37783/close.imageset/outline_close_black_18pt_1x.png" width="18" height="18" style="overflow:visible" transform="translate(6.549 -32.701)"/><image xlink:href="../AppData/Local/Temp/Rar$DRa23260.37783/close.imageset/outline_close_black_18pt_2x.png" width="36" height="36" style="overflow:visible" transform="translate(86.902 -1.99) scale(.9819)"/><image xlink:href="../AppData/Local/Temp/Rar$DRa23260.37783/close.imageset/outline_close_black_18pt_3x.png" width="54" height="54" style="overflow:visible" transform="translate(-89.772 -62.642) scale(.9819)"/><image xlink:href="Close 18x18.png" width="18" height="18" style="overflow:visible" transform="matrix(.602 0 0 .602 10 -29.25)"/></svg>